<?xml version="1.0" encoding="UTF-8"?>
<svg width="16px" height="16px" viewBox="0 0 16 16" version="1.1" xmlns="http://www.w3.org/2000/svg">
  <defs>
    <linearGradient id="glow" x1="0%" y1="0%" x2="100%" y2="100%">
      <stop offset="0%" stop-color="#00a8ff" stop-opacity="0.8" />
      <stop offset="100%" stop-color="#005eff" stop-opacity="0.9" />
    </linearGradient>
    <filter id="shadow" x="-20%" y="-20%" width="140%" height="140%">
      <feGaussianBlur in="SourceAlpha" stdDeviation="0.5" />
      <feOffset dx="0" dy="0" result="offsetblur" />
      <feComponentTransfer>
        <feFuncA type="linear" slope="0.7" />
      </feComponentTransfer>
      <feMerge>
        <feMergeNode />
        <feMergeNode in="SourceGraphic" />
      </feMerge>
    </filter>
  </defs>
  <path d="M14.5,2.63l-6-2.5c-0.31-0.13-0.69-0.13-1,0l-6,2.5C1.38,2.84,1,3.39,1,4v5.5c0,3.04,2.16,5.65,5.04,6.23 C6.28,15.73,6.64,15.75,7,15.75c2.43,0,4.64-1.52,5.5-3.97C12.74,11.15,13,10.23,13,9.25V4C13,3.39,12.62,2.84,14.5,2.63z" 
  fill="none" stroke="white" stroke-width="1" filter="url(#shadow)" />
  <path d="M14.5,2.63l-6-2.5c-0.31-0.13-0.69-0.13-1,0l-6,2.5C1.38,2.84,1,3.39,1,4v5.5c0,3.04,2.16,5.65,5.04,6.23 C6.28,15.73,6.64,15.75,7,15.75c2.43,0,4.64-1.52,5.5-3.97C12.74,11.15,13,10.23,13,9.25V4C13,3.39,12.62,2.84,14.5,2.63z" 
  fill="url(#glow)" />
</svg>